<svg width="10" height="6" viewBox="0 0 10 6" fill="none" xmlns="http://www.w3.org/2000/svg">
<path d="M5.00004 0.406066C5.08778 0.405559 5.17476 0.422375 5.25598 0.455552C5.33721 0.488729 5.41108 0.537611 5.47338 0.5994L9.47337 4.59941C9.59891 4.72495 9.66943 4.89521 9.66943 5.07275C9.66943 5.25028 9.59891 5.42054 9.47337 5.54608C9.34784 5.67162 9.17757 5.74214 9.00004 5.74214C8.82251 5.74214 8.65224 5.67162 8.52671 5.54608L5.00004 2.01274L1.47338 5.53941C1.34585 5.64863 1.1818 5.7057 1.01401 5.69922C0.846228 5.69274 0.687068 5.62319 0.568338 5.50446C0.449609 5.38573 0.380054 5.22657 0.373573 5.05878C0.367093 4.891 0.424163 4.72695 0.533381 4.59941L4.53338 0.5994C4.65755 0.476236 4.82515 0.406802 5.00004 0.406066Z" fill="#100D22"/>
</svg>
